<svg class="profileIcon" xmlns="http://www.w3.org/2000/svg" width="15" height="16" viewBox="0 0 15 16"><path fill="none" stroke="var(--gray900)" stroke-width=".607" d="M341,74 L341,60 L339.925333,61.0432692 L338.833333,60 L337.758667,61.0432692 L336.666667,60 L335.592,61.0432692 L334.5,60 L333.425333,61.0432692 L332.333333,60 L331.258667,61.0432692 L330.166667,60 L329.092,61.0432692 L328,60 L328,74 L329.092,72.9567308 L330.166667,74 L331.258667,72.9567308 L332.333333,74 L333.425333,72.9567308 L334.5,74 L335.592,72.9567308 L336.666667,74 L337.758667,72.9567308 L338.833333,74 L339.925333,72.9567308 L341,74 Z M338.833333,64.8966346 L330.166667,64.8966346 L330.166667,63.4831731 L338.833333,63.4831731 L338.833333,64.8966346 Z M338.833333,67.6899038 L330.166667,67.6899038 L330.166667,66.3100962 L338.833333,66.3100962 L338.833333,67.6899038 Z M338.833333,70.5168269 L330.166667,70.5168269 L330.166667,69.1033654 L338.833333,69.1033654 L338.833333,70.5168269 Z" opacity=".7" transform="translate(-327 -59)"/></svg>