<svg xmlns="http://www.w3.org/2000/svg" width="100" height="25"><g><path d="M0,1L100,1L100,1L0,1Z" stroke="var(--gray700)" stroke-opacity="0.3" shape-rendering="geometricPrecision" stroke-width="1" style="stroke-dasharray: 3, 1.5;"/><path d="M0,8.1521252796419L1.3333333333333333,7.894854586129593L2.6666666666666665,8.409395973154206L4,9.695749440715732L5.333333333333333,10.673378076062304L6.666666666666667,12.62863534675592L8,13.040268456375701L9.333333333333334,15.3042505592838L10.666666666666666,14.635346756152181L12,10.467561521252648L13.333333333333334,9.541387024608255L14.666666666666666,11.496644295301868L16,10.467561521252648L17.333333333333332,18.700223713646416L18.666666666666668,17.671140939597194L20,21.32438478747212L21.333333333333332,20.912751677852338L22.666666666666668,22.044742729306385L24,20.03803131991059L25.333333333333332,18.906040268456074L26.666666666666668,20.86129753914969L28,24L28,24L26.666666666666668,20.86129753914969L25.333333333333332,18.906040268456074L24,20.03803131991059L22.666666666666668,22.044742729306385L21.333333333333332,20.912751677852338L20,21.32438478747212L18.666666666666668,17.671140939597194L17.333333333333332,18.700223713646416L16,10.467561521252648L14.666666666666666,11.496644295301868L13.333333333333334,9.541387024608255L12,10.467561521252648L10.666666666666666,14.635346756152181L9.333333333333334,15.3042505592838L8,13.040268456375701L6.666666666666667,12.62863534675592L5.333333333333333,10.673378076062304L4,9.695749440715732L2.6666666666666665,8.409395973154206L1.3333333333333333,7.894854586129593L0,8.1521252796419Z" stroke="var(--red500)" stroke-opacity="1" shape-rendering="geometricPrecision" stroke-width="1.8"/></g></svg>