<svg xmlns="http://www.w3.org/2000/svg" width="100" height="25"><g><path d="M0,4.752265861027265L100,4.752265861027265L100,4.752265861027265L0,4.752265861027265Z" stroke="var(--gray700)" stroke-opacity="0.3" shape-rendering="geometricPrecision" stroke-width="1" style="stroke-dasharray: 3, 1.5;"/><path d="M0,14.758308157099862L1.3333333333333333,15.175226586102822L2.6666666666666665,13.993957703927718L4,10.10271903323259L5.333333333333333,11.006042296072598L6.666666666666667,11.422960725075557L8,13.646525679758533L9.333333333333334,11.006042296072598L10.666666666666666,9.546827794562084L12,8.018126888217479L13.333333333333334,2.8066465256796995L14.666666666666666,1L16,1.1389728096678624L17.333333333333332,8.71299093655585L18.666666666666668,17.190332326284157L20,20.3867069486406L21.333333333333332,24L22.666666666666668,22.61027190332326L24,19.69184290030223L25.333333333333332,13.577039274924443L26.666666666666668,15.036253776435274L28,17.954682779456302L28,17.954682779456302L26.666666666666668,15.036253776435274L25.333333333333332,13.577039274924443L24,19.69184290030223L22.666666666666668,22.61027190332326L21.333333333333332,24L20,20.3867069486406L18.666666666666668,17.190332326284157L17.333333333333332,8.71299093655585L16,1.1389728096678624L14.666666666666666,1L13.333333333333334,2.8066465256796995L12,8.018126888217479L10.666666666666666,9.546827794562084L9.333333333333334,11.006042296072598L8,13.646525679758533L6.666666666666667,11.422960725075557L5.333333333333333,11.006042296072598L4,10.10271903323259L2.6666666666666665,13.993957703927718L1.3333333333333333,15.175226586102822L0,14.758308157099862Z" stroke="var(--red500)" stroke-opacity="1" shape-rendering="geometricPrecision" stroke-width="1.8"/></g></svg>