<svg xmlns="http://www.w3.org/2000/svg" width="100" height="25"><g><path d="M0,14.616000000000167L100,14.616000000000167L100,14.616000000000167L0,14.616000000000167Z" stroke="var(--gray700)" stroke-opacity="0.3" shape-rendering="geometricPrecision" stroke-width="1" style="stroke-dasharray: 3, 1.5;"/><path d="M0,21.976000000000166L1.3333333333333333,21.056000000000168L2.6666666666666665,19.4L4,13.512000000000334L5.333333333333333,15.536000000000167L6.666666666666667,15.72L8,14.8L9.333333333333334,16.272000000000336L10.666666666666666,15.168000000000085L12,6.52L13.333333333333334,5.600000000000001L14.666666666666666,1L16,6.336000000000169L17.333333333333332,22.528000000000084L18.666666666666668,24L20,24L21.333333333333332,23.26400000000025L22.666666666666668,22.712000000000334L24,19.032000000000334L25.333333333333332,14.8L26.666666666666668,16.82400000000025L28,18.296000000000166L28,18.296000000000166L26.666666666666668,16.82400000000025L25.333333333333332,14.8L24,19.032000000000334L22.666666666666668,22.712000000000334L21.333333333333332,23.26400000000025L20,24L18.666666666666668,24L17.333333333333332,22.528000000000084L16,6.336000000000169L14.666666666666666,1L13.333333333333334,5.600000000000001L12,6.52L10.666666666666666,15.168000000000085L9.333333333333334,16.272000000000336L8,14.8L6.666666666666667,15.72L5.333333333333333,15.536000000000167L4,13.512000000000334L2.6666666666666665,19.4L1.3333333333333333,21.056000000000168L0,21.976000000000166Z" stroke="var(--green500)" stroke-opacity="1" shape-rendering="geometricPrecision" stroke-width="1.8"/></g></svg>