<svg xmlns="http://www.w3.org/2000/svg" width="100" height="25"><g><path d="M0,1L100,1L100,1L0,1Z" stroke="var(--gray700)" stroke-opacity="0.3" shape-rendering="geometricPrecision" stroke-width="1" style="stroke-dasharray: 3, 1.5;"/><path d="M0,20.179661016949083L1.3333333333333333,19.04915254237295L2.6666666666666665,17.138983050847315L4,17.06101694915247L5.333333333333333,16.203389830508474L6.666666666666667,12.266101694915113L8,17.489830508474647L9.333333333333334,17.95762711864407L10.666666666666666,16.866101694915184L12,14.916949152542301L13.333333333333334,16.74915254237274L14.666666666666666,16.710169491525495L16,16.008474576271187L17.333333333333332,24L18.666666666666668,21.777966101694986L20,22.440677966101696L21.333333333333332,21.738983050847388L22.666666666666668,21.89491525423743L24,20.491525423728813L25.333333333333332,18.73728813559322L26.666666666666668,18.54237288135593L28,19.283050847457485L28,19.283050847457485L26.666666666666668,18.54237288135593L25.333333333333332,18.73728813559322L24,20.491525423728813L22.666666666666668,21.89491525423743L21.333333333333332,21.738983050847388L20,22.440677966101696L18.666666666666668,21.777966101694986L17.333333333333332,24L16,16.008474576271187L14.666666666666666,16.710169491525495L13.333333333333334,16.74915254237274L12,14.916949152542301L10.666666666666666,16.866101694915184L9.333333333333334,17.95762711864407L8,17.489830508474647L6.666666666666667,12.266101694915113L5.333333333333333,16.203389830508474L4,17.06101694915247L2.6666666666666665,17.138983050847315L1.3333333333333333,19.04915254237295L0,20.179661016949083Z" stroke="var(--red500)" stroke-opacity="1" shape-rendering="geometricPrecision" stroke-width="1.8"/></g></svg>