<svg xmlns="http://www.w3.org/2000/svg" width="100" height="25"><g><path d="M0,1L100,1L100,1L0,1Z" stroke="var(--gray700)" stroke-opacity="0.3" shape-rendering="geometricPrecision" stroke-width="1" style="stroke-dasharray: 3, 1.5;"/><path d="M0,8.10424710424708L1.3333333333333333,10.945945945945951L2.6666666666666665,8.814671814671948L4,7.57142857142863L5.333333333333333,8.10424710424708L6.666666666666667,8.814671814671948L8,9.969111969112058L9.333333333333334,9.969111969112058L10.666666666666666,10.146718146718277L12,10.057915057915066L13.333333333333334,6.41698841698852L14.666666666666666,6.061776061776083L16,4.729729729729758L17.333333333333332,11.212355212355176L18.666666666666668,16.540540540540487L20,20.803088803088894L21.333333333333332,24L22.666666666666668,21.957528957529004L24,19.29343629343635L25.333333333333332,18.938223938223913L26.666666666666668,18.405405405405467L28,18.84942084942091L29.333333333333332,19.115830115830132L29.333333333333332,19.115830115830132L28,18.84942084942091L26.666666666666668,18.405405405405467L25.333333333333332,18.938223938223913L24,19.29343629343635L22.666666666666668,21.957528957529004L21.333333333333332,24L20,20.803088803088894L18.666666666666668,16.540540540540487L17.333333333333332,11.212355212355176L16,4.729729729729758L14.666666666666666,6.061776061776083L13.333333333333334,6.41698841698852L12,10.057915057915066L10.666666666666666,10.146718146718277L9.333333333333334,9.969111969112058L8,9.969111969112058L6.666666666666667,8.814671814671948L5.333333333333333,8.10424710424708L4,7.57142857142863L2.6666666666666665,8.814671814671948L1.3333333333333333,10.945945945945951L0,8.10424710424708Z" stroke="var(--red500)" stroke-opacity="1" shape-rendering="geometricPrecision" stroke-width="1.8"/></g></svg>