<svg xmlns="http://www.w3.org/2000/svg" width="100" height="25"><g><path d="M0,3.4580152671749502L100,3.4580152671749502L100,3.4580152671749502L0,3.4580152671749502Z" stroke="var(--gray700)" stroke-opacity="0.3" shape-rendering="geometricPrecision" stroke-width="1" style="stroke-dasharray: 3, 1.5;"/><path d="M0,24L1.3333333333333333,21.71755725190806L2.6666666666666665,17.503816793892604L4,14.343511450381612L5.333333333333333,8.54961832061026L6.666666666666667,1L8,18.20610687022865L9.333333333333334,15.572519083969087L10.666666666666666,11.885496183205863L12,13.114503816793338L13.333333333333334,16.099236641221317L14.666666666666666,13.465648854961758L16,13.64122137404557L17.333333333333332,16.274809160305132L18.666666666666668,12.763358778625717L20,11.885496183205863L21.333333333333332,13.465648854961758L22.666666666666668,14.519083969465424L24,11.534351145038242L25.333333333333332,9.954198473282345L26.666666666666668,13.81679389312938L28,11.534351145038242L28,11.534351145038242L26.666666666666668,13.81679389312938L25.333333333333332,9.954198473282345L24,11.534351145038242L22.666666666666668,14.519083969465424L21.333333333333332,13.465648854961758L20,11.885496183205863L18.666666666666668,12.763358778625717L17.333333333333332,16.274809160305132L16,13.64122137404557L14.666666666666666,13.465648854961758L13.333333333333334,16.099236641221317L12,13.114503816793338L10.666666666666666,11.885496183205863L9.333333333333334,15.572519083969087L8,18.20610687022865L6.666666666666667,1L5.333333333333333,8.54961832061026L4,14.343511450381612L2.6666666666666665,17.503816793892604L1.3333333333333333,21.71755725190806L0,24Z" stroke="var(--red500)" stroke-opacity="1" shape-rendering="geometricPrecision" stroke-width="1.8"/></g></svg>