<svg xmlns="http://www.w3.org/2000/svg" width="100" height="25"><g><path d="M0,4.190751445086878L100,4.190751445086878L100,4.190751445086878L0,4.190751445086878Z" stroke="var(--gray700)" stroke-opacity="0.3" shape-rendering="geometricPrecision" stroke-width="1" style="stroke-dasharray: 3, 1.5;"/><path d="M0,13.29768786127187L1.3333333333333333,8.245664739884266L2.6666666666666665,6.583815028901579L4,5.586705202311968L5.333333333333333,8.644508670520352L6.666666666666667,13.82947976878645L8,9.90751445086695L9.333333333333334,4.921965317918897L10.666666666666666,8.445086705202309L12,7.91329479768773L13.333333333333334,2.5953757225431353L14.666666666666666,1L16,5.586705202311968L17.333333333333332,12.367052023121204L18.666666666666668,12.83236994219684L20,20.543352601156137L21.333333333333332,21.141618497110265L22.666666666666668,24L24,16.4219653179192L25.333333333333332,12.500000000000302L26.666666666666668,12.433526011560753L28,12.632947976878796L29.333333333333332,12.632947976878796L29.333333333333332,12.632947976878796L28,12.632947976878796L26.666666666666668,12.433526011560753L25.333333333333332,12.500000000000302L24,16.4219653179192L22.666666666666668,24L21.333333333333332,21.141618497110265L20,20.543352601156137L18.666666666666668,12.83236994219684L17.333333333333332,12.367052023121204L16,5.586705202311968L14.666666666666666,1L13.333333333333334,2.5953757225431353L12,7.91329479768773L10.666666666666666,8.445086705202309L9.333333333333334,4.921965317918897L8,9.90751445086695L6.666666666666667,13.82947976878645L5.333333333333333,8.644508670520352L4,5.586705202311968L2.6666666666666665,6.583815028901579L1.3333333333333333,8.245664739884266L0,13.29768786127187Z" stroke="var(--red500)" stroke-opacity="1" shape-rendering="geometricPrecision" stroke-width="1.8"/></g></svg>