<svg xmlns="http://www.w3.org/2000/svg" width="100" height="25"><g><path d="M0,1L100,1L100,1L0,1Z" stroke="var(--gray700)" stroke-opacity="0.3" shape-rendering="geometricPrecision" stroke-width="1" style="stroke-dasharray: 3, 1.5;"/><path d="M0,15.526315789473685L1.3333333333333333,13.347368421052412L2.6666666666666665,14.31578947368421L4,12.136842105262938L5.333333333333333,15.042105263157785L6.666666666666667,15.284210526315734L8,19.39999999999978L9.333333333333334,17.221052631578782L10.666666666666666,17.46315789473673L12,15.768421052631359L13.333333333333334,16.978947368420833L14.666666666666666,15.526315789473685L16,14.557894736841885L17.333333333333332,20.852631578947204L18.666666666666668,21.821052631578727L20,22.305263157894625L21.333333333333332,21.094736842105153L22.666666666666668,23.75789473684205L24,20.852631578947204L25.333333333333332,20.610526315789254L26.666666666666668,22.063157894736676L28,24L29.333333333333332,23.75789473684205L29.333333333333332,23.75789473684205L28,24L26.666666666666668,22.063157894736676L25.333333333333332,20.610526315789254L24,20.852631578947204L22.666666666666668,23.75789473684205L21.333333333333332,21.094736842105153L20,22.305263157894625L18.666666666666668,21.821052631578727L17.333333333333332,20.852631578947204L16,14.557894736841885L14.666666666666666,15.526315789473685L13.333333333333334,16.978947368420833L12,15.768421052631359L10.666666666666666,17.46315789473673L9.333333333333334,17.221052631578782L8,19.39999999999978L6.666666666666667,15.284210526315734L5.333333333333333,15.042105263157785L4,12.136842105262938L2.6666666666666665,14.31578947368421L1.3333333333333333,13.347368421052412L0,15.526315789473685Z" stroke="var(--red500)" stroke-opacity="1" shape-rendering="geometricPrecision" stroke-width="1.8"/></g></svg>