<svg xmlns="http://www.w3.org/2000/svg" width="100" height="25"><g><path d="M0,1L100,1L100,1L0,1Z" stroke="var(--gray700)" stroke-opacity="0.3" shape-rendering="geometricPrecision" stroke-width="1" style="stroke-dasharray: 3, 1.5;"/><path d="M0,10.977941176470642L1.3333333333333333,13.85294117647069L2.6666666666666665,9.286764705882424L4,7.595588235294205L5.333333333333333,5.5661764705882675L6.666666666666667,12.838235294117528L8,24L9.333333333333334,20.78676470588223L10.666666666666666,23.66176470588228L12,14.022058823529358L13.333333333333334,16.220588235293967L14.666666666666666,10.808823529411974L16,7.426470588235539L17.333333333333332,21.97058823529406L18.666666666666668,22.47794117647045L20,21.97058823529406L21.333333333333332,21.463235294117673L22.666666666666668,21.29411764705862L24,16.727941176470736L25.333333333333332,17.573529411764845L26.666666666666668,14.191176470588411L28,14.36029411764708L29.333333333333332,16.897058823529406L29.333333333333332,16.897058823529406L28,14.36029411764708L26.666666666666668,14.191176470588411L25.333333333333332,17.573529411764845L24,16.727941176470736L22.666666666666668,21.29411764705862L21.333333333333332,21.463235294117673L20,21.97058823529406L18.666666666666668,22.47794117647045L17.333333333333332,21.97058823529406L16,7.426470588235539L14.666666666666666,10.808823529411974L13.333333333333334,16.220588235293967L12,14.022058823529358L10.666666666666666,23.66176470588228L9.333333333333334,20.78676470588223L8,24L6.666666666666667,12.838235294117528L5.333333333333333,5.5661764705882675L4,7.595588235294205L2.6666666666666665,9.286764705882424L1.3333333333333333,13.85294117647069L0,10.977941176470642Z" stroke="var(--red500)" stroke-opacity="1" shape-rendering="geometricPrecision" stroke-width="1.8"/></g></svg>