<svg xmlns="http://www.w3.org/2000/svg" width="402" height="315" viewBox="0 0 402 315">
    <defs>
        <linearGradient id="a" x1=".042%" y1="50.012%" y2="50.012%">
            <stop offset="0%" stop-color="gray" stop-opacity=".25"/>
            <stop offset="54%" stop-color="gray" stop-opacity=".12"/>
            <stop offset="100%" stop-color="gray" stop-opacity=".1"/>
        </linearGradient>
    </defs>
    <g fill="none" fill-rule="nonzero">
        <ellipse cx="141" cy="295.5" fill="#44475B" opacity=".1" rx="70" ry="13.5"/>
        <path fill="#00D09C" d="M233.566 44.511c-25.772-.895-50.317-9.246-73.755-18.38-23.438-9.134-46.653-19.252-71.807-24.09-16.18-3.113-34.683-3.557-47.717 5.138-12.547 8.391-16.6 22.836-18.779 36.25-1.64 10.093-2.604 20.717 1.888 30.167 3.122 6.561 8.657 12.075 12.487 18.36 13.328 21.865 3.907 48.829-10.532 70.178-6.77 10.013-14.634 19.579-19.862 30.228-5.229 10.648-7.646 22.891-3.07 33.784 4.531 10.788 15.334 18.876 27.037 24.57 23.769 11.567 51.766 14.876 79.087 16.754 60.459 4.147 121.236 2.353 181.854.551 22.434-.663 44.964-1.339 67.033-4.819 12.256-1.934 24.907-5.002 33.807-12.41 11.293-9.403 14.092-25.322 6.522-37.11-12.694-19.778-47.784-24.689-56.667-45.91-4.882-11.684.13-24.694 7.23-35.526 15.228-23.244 40.749-43.634 42.09-70.197.924-18.245-11.344-36.518-30.314-45.152-19.883-9.05-47.458-7.912-62.12 7.068-15.111 15.408-41.655 21.341-64.412 20.546z" opacity=".1"/>
        <path fill="url(#a)" d="M213 143.943l-12.261-8.236 6.184-9.174-32.384-2.572-11.637 8.966-14.568-8.137-12.149 1.456-.144-3.19a89.732 89.732 0 0 0-1.005-9.932c.052-.997.088-2.142.084-3.386 0-5.245-.712-12.197-3.843-16.831l.72-6.453-5.844-6.88a43.986 43.986 0 0 1 3.203-5.369c.2-.287.4-.566.616-.837 7.586-.547 13.57-6.76 13.57-14.359 0-.35 0-.702-.04-1.049 0-.14-.027-.283-.043-.423.74.4 1.489.798 2.237 1.197.14.2.3.399.477.634l.036.044.224.275.072.084c.08.096.164.187.248.283l.056.064c.212.235.437.475.677.71a.72.72 0 0 1 .08.076l.3.279.084.076c.256.227.529.446.8.654l.089.064.344.235.112.072c.132.08.268.163.4.239l.049.028c.156.084.316.163.476.24l.08.031c.136.059.27.114.4.168l.124.044c.14.047.277.091.42.131l.089.024c.176.044.352.08.532.108h.02c.17.027.34.044.513.052h.116c.153.008.307.008.46 0h.1a4.76 4.76 0 0 0 .573-.068 6.332 6.332 0 0 0 2.521-.902c.196-.13.369-.29.513-.474.8-1.045-.08-2.19-.08-2.19-.312-.742-2.338-1.264-2.338-1.264s-6.405-2.664-6.405-4.786c0-2.122-1.601-13.13-18.13-15.647 0 0-10.752-.602-13.774 5.133l-.064.67c-.89.555-1.626 1.667-2.502 1.995a4.097 4.097 0 0 0-1.085.398v-.075a1.03 1.03 0 0 0-.244.315c-.189.373-.302.78-.333 1.196-.09.51-.267.999-.524 1.448-.072.128-.152.25-.24.367l-.068.108c.465.036.931-.04 1.36-.22a6.732 6.732 0 0 1-.4 1.596 1.33 1.33 0 0 0 1.233-.734v-.032l.052-.072c.101-.185.184-.378.249-.578l-.044.048c.08-.26.152-.523.24-.778.04-.144.107-.28.196-.399a.97.97 0 0 1 .829-.275l-.164 3.458h.072a4.71 4.71 0 0 1-.353.726c-.568.917-1.6 1.543-1.981 2.548a3.736 3.736 0 0 0-.184 1.508c0 .299.036.602.06.901v-.024c.056.798.072 1.556-.36 2.198-.297.439-.773.77-.937 1.268a1.232 1.232 0 0 0-.06.431c.032.437.123.868.272 1.28a.056.056 0 0 0 0-.024c.1.304.123.627.068.942-.18.797-1.153 1.463-1.105 2.225-.003.1.012.2.044.295.187.372.511.658.905.798.617.35 1.326.505 2.033.447a2.68 2.68 0 0 0 .76-.26c-.28.643-.568 1.277-.86 1.879-.044.096-.092.191-.14.287 0 0-2.474-1.647-3.879 1.711a7.434 7.434 0 0 0-.868 2.25c-.07.316-.17.626-.297.925a5.97 5.97 0 0 1-2.674 2.393c-2.866 1.308-14.443 15.694-14.647 19.42a21.66 21.66 0 0 1-.737 4.3 25.495 25.495 0 0 0-.688 10.166 19.39 19.39 0 0 0 .708 3.242c1.23 3.721 2.05 10.665 2.05 10.665l1.33 12.053c-.05 1.664.022 3.329.215 4.982-1.357 1.543-6.805 7.977-4.723 9.728 1.6 1.38 4.403 1.152 5.976.87-1.325 3.266-3.41 8.945-3.687 12.846-.4 5.771.685 13.417 2.402 16.352 1.718 2.936 7.442 10.466 7.442 10.466s-.268 10.33 1.777 14.083c2.046 3.753 2.87 11.539 2.87 11.539s1.91 6.573.953 8.99c-.957 2.416 1.774 4.427-1.093 6.034-2.866 1.607-6.533 37.834-6.533 37.834s-1.477 23.743 0 24.952c.08.057.164.106.253.147v7.977s-1.025 1.675 3.142 2.014c2.854.228 10.944.742 15.744 1.041l3.719.232s8.807 1.747 12.698 0c3.89-1.747 10.788-1.707 9.763-6.322a13.093 13.093 0 0 0-.544-1.847c-1.125-2.863-3.035-3.19-6.553-3.988-.205-.044-.4-.084-.58-.116-3.708-.642-4.925 1.077-7.002-1.16-1.806-1.935-7.554-4.1-9.511-4.787.048-.143.108-.283.156-.43a2.935 2.935 0 0 1-1.485-.722l5.304.335 3.158.195s7.486 1.488 10.808 0c3.323-1.487 9.167-1.448 8.295-5.368a11.22 11.22 0 0 0-.46-1.572c-.957-2.433-2.583-2.7-5.573-3.374-.172-.036-.332-.072-.492-.1-3.15-.546-4.184.914-5.949-.985-1.513-1.619-6.289-3.434-8.006-4.052 0-.885-1.201-2.146-1.958-3.41-.888-1.476.753-6.64.753-6.64l.937-21.43a4.167 4.167 0 0 1 1.12-.32s4.236-4.028 3.28-8.32a27.473 27.473 0 0 1-.305-3.92c1.393-1.288 3.31-3.19 3.855-4.363.889-1.91 0-11.168 0-11.168v-35.397l7.085.714 6.43.658 1.957.2 6.429.645 14.775 1.488 13.314-2.513 5.76-1.085 11.846-2.233v-28.876L213 143.943zm-97.519-95.687l-.824-.087c.272.012.56.063.824.087z"/>
        <path fill="#EFB7B9" d="M183.65 163.503c-4.08 5.728-18.75 2.694-18.75 2.694l-11.37-10.436-1.53-1.413 2.567-5.348s.816.22 2.216.612c7.35 2.094 30.312 9.075 26.867 13.891z"/>
        <path fill="#000" d="M158 149.634c-.526 1.774-1.966 4.43-3.397 6.366L153 154.537l2.688-5.537s.863.228 2.312.634z" opacity=".1"/>
        <path fill="#DCE6F2" d="M119.707 89.167s-10.19 4.515-9.69 15.604c.36 7.144 1.14 14.26 2.334 21.313 0 0-2.083 16.687 6.59 20.988 8.674 4.302 16.7 7.838 16.7 7.838s13.57 1.46 15.257 2.062c1.686.602 6.955-8.611 5.983-10.046-.972-1.436-13.427-4.445-15.014-6.84-1.587-2.394-5.257-3.872-5.257-3.872s-3.79-2.292-4.047-4.361c-.258-2.07.742-3.612.996-4.52.254-.908.896-9.673.896-9.673s4.278-31.201-14.748-28.493z"/>
        <path fill="#000" d="M126 126s-13.19 2.59-11.913 8c0 0 4.788-5.84 11.913-8zM127 128s-8.437 6.648-6.786 6.988C121.864 135.33 127 128 127 128zM130.933 130s-1.595 4.276-.614 3.986c.98-.29.614-3.986.614-3.986z" opacity=".1"/>
        <path fill="#000" d="M158.204 149.585l-.86-.245c.246-.802.314-1.451.113-1.752-.984-1.452-13.583-4.491-15.185-6.917-1.602-2.426-5.321-3.918-5.321-3.918s-3.836-2.317-4.097-4.41c-.261-2.094.751-3.653 1.008-4.572.257-.918.908-9.788.908-9.788s4.317-31.553-14.94-28.815c0 0-10.314 4.572-9.812 15.787a184.111 184.111 0 0 0 2.365 21.557s-2.108 16.878 6.671 21.228a464.693 464.693 0 0 0 16.904 7.928s13.732 1.471 15.443 2.085c.646.232 1.815-.967 2.96-2.615l.65.606 11.19 10.45s14.438 3.043 18.454-2.695c3.394-4.828-19.201-11.821-26.45-13.914z" opacity=".1"/>
        <path fill="#965D7B" d="M113.65 47.481c-.431.083-.844.24-1.22.462-.44.358-.44.97-.55 1.506-.129.744-.43 1.45-.88 2.062.5.036 1.003-.045 1.466-.237a7.276 7.276 0 0 1-.44 1.726 1.43 1.43 0 0 0 1.32-.79c.233-.486.417-.993.55-1.514.042-.156.113-.303.212-.432.404-.47 1.157-.259 1.782-.198a2.948 2.948 0 0 0 2.676-1.26c.665-.988.705-3.516-.88-3.784-1.655-.267-2.685 1.968-4.036 2.46z"/>
        <g fill="#000" opacity=".1">
            <path d="M112.377 47.712c.038-.204.063-.416.11-.62-.4.346-.422.933-.527 1.454-.053.3-.136.595-.248.879a4.745 4.745 0 0 0 .665-1.712zM112.512 51.154a6.87 6.87 0 0 0 .42-1.667 3.043 3.043 0 0 1-1.334.23 4.808 4.808 0 0 1-.484.833c.477.037.956-.04 1.398-.225a6.87 6.87 0 0 1-.421 1.667 1.37 1.37 0 0 0 1.263-.763c.105-.19.19-.389.252-.596a1.268 1.268 0 0 1-1.094.521zM116.208 48.32c-.597-.058-1.322-.262-1.71.192-.091.126-.16.267-.201.417-.038.108-.072.221-.101.333.4-.312 1.048-.145 1.591-.091a2.823 2.823 0 0 0 2.56-1.217c.128-.202.223-.423.282-.654a2.818 2.818 0 0 1-2.42 1.02z"/>
        </g>
        <path fill="#DCE6F2" d="M126.025 81L132 87.968 131.22 95 124 84.04z"/>
        <path fill="#000" d="M132 87.968l-.733 6.614-.047.418-6.518-9.893-.702-1.068.204-.307L126.023 81l.403.471z" opacity=".1"/>
        <path fill="#EFB7B9" d="M134.959 69.865c-2.039.597-3.987 2.645-5.682 5.133a44.027 44.027 0 0 0-3.066 5.378 68.427 68.427 0 0 0-1.454 3.18l-.284.678a54.326 54.326 0 0 0-1.07 2.766s-15.607-11.974-13.138-12.78c.83-.27 1.92-2.085 2.999-4.37l.134-.291a78.174 78.174 0 0 0 1.952-4.645c1.22-3.164 2.126-5.914 2.126-5.914s23.706 9.051 17.483 10.865z"/>
        <path fill="#444053" d="M145 58s3.696 6.846 8.661 5.913c4.966-.934 2.923-3.677 2.923-3.677L145 58z"/>
        <path fill="#A36468" d="M137.937 286.353c-3.183 1.455-10.38 0-10.38 0l-3.033-.189c-3.939-.252-10.533-.678-12.865-.867-3.404-.28-2.569-1.676-2.569-1.676v-8.434L125.603 271s6.528 2.236 8.316 4.187c1.698 1.861 2.69.43 5.72.966.15.028.307.06.472.099 2.876.658 4.436.919 5.358 3.304.185.501.334 1.015.445 1.538.85 3.84-4.798 3.812-7.977 5.26z"/>
        <path fill="#000" d="M145 278.739c-.584.407-1.198.757-1.835 1.048-2.14 1.088-4.173 2.413-6.335 3.44-2.162 1.027-4.491 1.76-6.832 1.564-1.225-.1-2.477-.433-3.647-.043a8.217 8.217 0 0 0-2.026 1.252c-3.889-.277-10.398-.745-12.7-.953-3.36-.308-2.536-1.841-2.536-1.841v-1.084c.12 0 .257-.039.413-.052a6.652 6.652 0 0 1 2.372.395c1.687.511 3.367 1.014 5.055 1.516.28-1.18.983-2.179 1.944-2.764a5.685 5.685 0 0 1 3.134-.801c2.617.039 5.094 1.42 7.707 1.56a3.863 3.863 0 0 0 2.135-.4c.358-.199.673-.489 1.023-.71a6.956 6.956 0 0 1 1.761-.663 36.021 36.021 0 0 0 5.036-1.81c.466-.204 1.01-.573.949-1.127-.082-.737-1.12-.823-1.392-1.5a.955.955 0 0 1 .03-.766c.148.03.304.065.467.108 2.827.724 4.367 1.01 5.277 3.63z" opacity=".1"/>
        <path fill="#A36468" d="M134.407 305.233c-3.783 1.726-12.342 0-12.342 0l-3.603-.211c-4.666-.299-12.525-.796-15.3-1.03-4.05-.335-3.054-1.99-3.054-1.99v-10.03l19.64-4.972s7.763 2.654 9.89 4.973c2.018 2.208 3.184.51 6.803 1.146.18.031.366.071.561.115 3.42.796 5.276 1.094 6.37 3.927.222.594.399 1.205.53 1.826.987 4.559-5.713 4.523-9.495 6.246z"/>
        <path fill="#000" d="M143 297.062c-.698.443-1.43.826-2.191 1.145-2.554 1.185-4.986 2.631-7.568 3.752-2.582 1.12-5.365 1.916-8.164 1.707-1.46-.108-2.957-.482-4.343-.048a10.02 10.02 0 0 0-2.427 1.382c-4.627-.301-12.42-.803-15.172-1.04-4.015-.338-3.028-2.01-3.028-2.01v-1.18c.164-.027.328-.046.494-.057a8.523 8.523 0 0 1 2.834.43l6.036 1.655a4.848 4.848 0 0 1 2.341-3.017 7.262 7.262 0 0 1 3.747-.875c3.127.044 6.083 1.55 9.206 1.703.87.08 1.745-.067 2.543-.43.43-.22.79-.538 1.223-.775a8.485 8.485 0 0 1 2.105-.723 46.67 46.67 0 0 0 5.984-1.977c.557-.225 1.208-.627 1.133-1.23-.098-.803-1.338-.9-1.666-1.638a.983.983 0 0 1 .04-.836c.178.032.363.072.557.117 3.39.77 5.23 1.084 6.316 3.945z" opacity=".1"/>
        <path fill="#444053" d="M124.888 236l-1.05 25.13s-1.573 5.132-.72 6.6c.854 1.468 2.294 2.932 1.77 3.8-.523.868-6.815 10.25-8.849 6.651-2.033-3.6-4.039-19.199-4.039-19.199l1.876-19.266L124.888 236zM130.415 174l3.173 3.948v34.337s.928 9.153 0 11.044c-.928 1.89-5.632 5.671-5.632 5.671L124 210.096l.855-19.998 5.56-16.098z"/>
        <path fill="#000" d="M124.888 236l-1.05 25.13s-1.573 5.132-.72 6.6c.854 1.468 2.294 2.932 1.77 3.8-.523.868-6.815 10.25-8.849 6.651-2.033-3.6-4.039-19.199-4.039-19.199l1.876-19.266L124.888 236zM130.415 174l3.173 3.948v34.337s.928 9.153 0 11.044c-.928 1.89-5.632 5.671-5.632 5.671L124 210.096l.855-19.998 5.56-16.098z" opacity=".1"/>
        <path fill="#444053" d="M133 159.539v18.548l-3.298 14.439s-1.057 34.844-.135 39.08c.923 4.237-3.167 8.215-3.167 8.215s-2.376.267-2.376 2.119c0 1.852-3.96 7.154-3.96 7.154l.131 10.333s1.719 19.343-.922 23.052c-2.641 3.708.922 4.24.922 4.24-3.298 10.862-19.136 8.346-20.565 7.154-1.43-1.192 0-24.641 0-24.641s3.54-35.77 6.311-37.36c2.772-1.59.135-3.576 1.057-5.961.923-2.385-.922-8.875-.922-8.875s-.792-7.686-2.772-11.394c-1.98-3.709-1.718-13.91-1.718-13.91s-5.544-7.421-7.19-10.334c-1.648-2.914-2.709-10.465-2.313-16.164.27-3.851 2.285-9.46 3.564-12.686.613-1.546 1.057-2.548 1.057-2.548l.376.1 21.626 5.683L133 159.539z"/>
        <path fill="#000" d="M134.942 70.876c-2.073.596-4.054 2.64-5.777 5.124h-.45a14.345 14.345 0 0 1-12.454-7.217A14.175 14.175 0 0 1 115 65.905c1.241-3.16 2.161-5.905 2.161-5.905s24.108 9.065 17.78 10.876z" opacity=".1"/>
        <path fill="#EFB7B9" d="M143 60.493a14.483 14.483 0 0 1-9.483 13.612 14.511 14.511 0 0 1-16.06-4.202 14.469 14.469 0 0 1-1.583-16.507 14.15 14.15 0 0 1 1.533-2.212 14.669 14.669 0 0 1 3.334-2.925 14.515 14.515 0 0 1 14.293-.714 14.482 14.482 0 0 1 7.946 11.887c.008.357.02.709.02 1.061z"/>
        <path fill="#000" d="M131 94.56l-.047.44-6.542-10.41c-.685 1.646-1.067 2.747-1.067 2.747s-15.539-11.908-13.08-12.709c.826-.268 1.912-2.07 2.986-4.34l.133-.288c1.141 3.46 7.77 10.374 10.528 13.145.319.32.582.584.787.776l.42.4.22.225c1.004 1.053 5.237 5.697 5.662 10.014z" opacity=".1"/>
        <path fill="#DCE6F2" d="M136 129.57l-.726 23.284-.128 4.146s-8.603-.795-16.632-1.67c-6.464-.703-12.558-1.463-13.495-1.908-1.197-.56-3.763-.994-5.786-1.268-1.565-.21-2.794-.322-2.794-.322s-.459.135-1.165.262c-1.54.279-4.246.505-5.822-.858-2.015-1.745 3.28-8.086 4.601-9.609l.291-.33-.498-4.591-1.297-11.906s-.798-6.857-1.995-10.535a19.368 19.368 0 0 1-.69-3.2 25.54 25.54 0 0 1 .67-10.041c.379-1.39.62-2.813.718-4.25.2-3.677 11.472-17.889 14.265-19.18a5.91 5.91 0 0 0 2.858-2.84c.194-.392.34-.808.435-1.236 1.197-5.168 4.225-3.116 4.225-3.116.73 4.043 12.035 14.744 12.035 14.744l.224.223c1.121 1.145 6.117 6.52 5.762 11.107a13.418 13.418 0 0 0 .754 5.025 84.683 84.683 0 0 1 3.93 22.261l.26 5.808z"/>
        <path fill="#000" d="M120.902 102s-3.146 7.105-5.505 8.254c-2.36 1.15 6.629 2.424 5.505-8.254zM123 114s-7 .705-7 1.763c0 1.057 7-1.763 7-1.763zM129 122s-9.138 19.4-11.693 19.988C114.752 142.576 129 122 129 122zM126 85.622L118.297 89 109 74.833c.195-.4.342-.822.437-1.257 1.201-5.253 4.242-3.168 4.242-3.168.733 4.11 12.08 14.988 12.08 14.988l.241.226z" opacity=".1"/>
        <path fill="#DCE6F2" d="M126 84.622L118.297 88 109 73.833c.195-.4.342-.822.437-1.257 1.201-5.253 4.242-3.168 4.242-3.168.733 4.11 12.08 14.988 12.08 14.988l.241.226z"/>
        <path fill="#000" d="M134.873 156.757s-8.578-.798-16.582-1.677l14.362 3.773v4.393c-.629.57-1.174.866-1.528.715-1.655-.7-15.161-2.895-15.161-2.895s-7.845-3.993-16.311-8.785a6.533 6.533 0 0 1-.597-.375 9.422 9.422 0 0 1-2.506-2.52c-1.564-2.272-2.328-5.19-2.658-8.054a34.955 34.955 0 0 1-.207-4.943c.041-1.872.211-3.738.51-5.586A184.382 184.382 0 0 1 93 109.24c.1-11.18 10.543-15.173 10.543-15.173 19.195-1.697 13.243 29.448 13.243 29.448s-1.11 8.785-1.412 9.683c-.302.899-1.388 2.396-1.241 4.493.147 2.096 3.815 4.603 3.815 4.603s3.58 1.685 5.056 4.181c1.075 1.84 8.052 4.337 11.995 6.117l-.127 4.165zM142 51.377a4.655 4.655 0 0 1-.397 1.934c-.204.496-.44.977-.707 1.441a6.615 6.615 0 0 1-1.74 2.201c-.917.668-2.077.854-3.177 1.125s-2.244.704-2.872 1.66a5.876 5.876 0 0 0-.671 1.982 4.308 4.308 0 0 1-.794 1.918 1.542 1.542 0 0 1-1.86.454 1.91 1.91 0 0 1-.718-.943c-.453-1.04-.568-2.194-.75-3.314-.183-1.121-.441-2.275-1.117-3.177-.675-.902-1.87-1.497-2.93-1.145a2.849 2.849 0 0 0-1.59 1.57 9.133 9.133 0 0 0-.6 2.234 129.709 129.709 0 0 1-1.743 8.19.76.76 0 0 1-.13.308.567.567 0 0 1-.398.17c-.89.12-1.743-.514-2.641-.446a1.491 1.491 0 0 0-.274.045c-2.973-5.264-2.4-11.86 1.434-16.51l.071-.02a4.271 4.271 0 0 0 1.589-1.02 17 17 0 0 0 1.588-1.874l.318-.405a18.263 18.263 0 0 1 3.098-2.998 3.16 3.16 0 0 1 1.057-.583c.33-.065.667-.076 1-.032 1.372.167 2.755.22 4.135.157a26.05 26.05 0 0 1 2.903-.299c2.514.073 4.659 1.882 6.248 3.865.854 1.015 1.616 2.185 1.668 3.512z" opacity=".1"/>
        <path fill="#965D7B" d="M114.135 53.095c-.557.927-1.563 1.557-1.94 2.574-.553 1.476.381 3.313-.476 4.63-.285.444-.754.773-.914 1.281-.273.858.473 1.773.28 2.655-.192.882-1.338 1.626-1.034 2.488.18.376.496.667.882.813.607.354 1.306.511 2.004.452 1.094-.183 1.908-1.273 3.018-1.354.902-.065 1.764.569 2.661.451a.597.597 0 0 0 .401-.175.708.708 0 0 0 .132-.309 134.812 134.812 0 0 0 1.764-8.229 8.964 8.964 0 0 1 .601-2.244 2.893 2.893 0 0 1 1.603-1.577c1.07-.35 2.273.244 2.958 1.15.686.907.946 2.066 1.13 3.192.185 1.126.301 2.285.754 3.33.138.387.393.72.73.95.6.355 1.41.074 1.871-.454.422-.566.698-1.23.802-1.932a5.862 5.862 0 0 1 .677-1.988c.633-.96 1.792-1.394 2.898-1.667 1.106-.272 2.273-.463 3.206-1.134a6.675 6.675 0 0 0 1.756-2.208c.593-1.049 1.146-2.187 1.098-3.395-.052-1.317-.822-2.492-1.643-3.516-1.603-1.993-3.772-3.81-6.309-3.879-.981.042-1.96.142-2.93.3-1.393.064-2.788.01-4.172-.162a3.233 3.233 0 0 0-1.01.037c-.39.12-.75.32-1.062.585a18.401 18.401 0 0 0-3.13 3.009c-.595.8-1.24 1.56-1.932 2.277-.454.458-1.001.81-1.604 1.028-.4.114-.801.033-1.182.159-1.182.378-1.339 1.943-1.888 2.862z"/>
        <path fill="#000" d="M153.663 63.912c-3.243.61-5.93-2.076-7.418-4.036A16.308 16.308 0 0 1 145 58l11.132 2.15.45.088s2.047 2.744-2.919 3.674z" opacity=".1"/>
        <g fill="#000" opacity=".1">
            <path d="M111.414 62.968a3.16 3.16 0 0 0-.235-1.503c0 .04-.037.078-.049.118-.174.524.06 1.068.21 1.612.033-.073.057-.15.074-.227zM112.378 56.562a8.401 8.401 0 0 0 .032 1.624 8.424 8.424 0 0 0-.032-1.624zM140.51 52.903a6.464 6.464 0 0 1-1.775 2.13c-.936.645-2.114.825-3.24 1.087-1.126.262-2.289.68-2.929 1.604a5.512 5.512 0 0 0-.684 1.918 4.025 4.025 0 0 1-.81 1.858c-.466.51-1.285.783-1.892.439a1.881 1.881 0 0 1-.737-.916c-.458-1.006-.58-2.117-.762-3.205-.182-1.088-.454-2.199-1.142-3.071-.689-.873-1.908-1.448-2.99-1.108a2.85 2.85 0 0 0-1.62 1.518 8.304 8.304 0 0 0-.607 2.16c-.505 2.659-1.1 5.299-1.783 7.92a.666.666 0 0 1-.133.298.618.618 0 0 1-.405.168c-.908.114-1.779-.497-2.69-.434-1.122.078-1.944 1.127-3.05 1.299a3.521 3.521 0 0 1-2.026-.435 2.168 2.168 0 0 1-.74-.508 1.027 1.027 0 0 0-.15.912c.178.364.498.645.89.782.613.344 1.32.496 2.026.434 1.106-.172 1.928-1.22 3.05-1.299.911-.062 1.782.548 2.69.435a.618.618 0 0 0 .405-.169.666.666 0 0 0 .133-.297 120.5 120.5 0 0 0 1.783-7.92 8.304 8.304 0 0 1 .607-2.16 2.85 2.85 0 0 1 1.62-1.518c1.082-.34 2.297.235 2.99 1.107.692.873.956 1.988 1.142 3.072.186 1.084.304 2.199.762 3.205.139.373.397.693.737.915.607.34 1.426.07 1.891-.438a4.025 4.025 0 0 0 .81-1.859 5.512 5.512 0 0 1 .685-1.917c.64-.923 1.81-1.338 2.929-1.604 1.118-.266 2.296-.443 3.24-1.088a6.464 6.464 0 0 0 1.774-2.129c.6-1.006 1.159-2.101 1.11-3.263a4.065 4.065 0 0 0-.048-.446 7.544 7.544 0 0 1-1.062 2.523z"/>
        </g>
        <path fill="#000" d="M141.202 53.18A13.543 13.543 0 0 1 143 59c-3.6-1.96-6.987-4.111-8.697-4.86-2.978-1.305-14.116-1.11-18.303-.988.438-.758.95-1.475 1.528-2.14a14.496 14.496 0 0 1 3.334-2.83 14.838 14.838 0 0 1 11.287-1.755c3.851.944 7.133 3.383 9.073 6.745l-.02.008zM154.99 62.848c-2.013.57-5.299-.531-8.705-2.109A15.095 15.095 0 0 1 145 59l11.492 1.993c.762.477.954 1.158-1.502 1.855z" opacity=".1"/>
        <path fill="#444053" d="M129.826 39.018s-10.456-.595-13.396 5.061l-.474 5.014-.797-.088-.159 3.41s15.982-.694 19.618.941c3.637 1.635 14.938 9.876 19.467 8.487 4.53-1.39-.398-2.68-.398-2.68s-6.234-2.631-6.234-4.695c0-2.065-1.546-12.969-17.627-15.45z"/>
        <path fill="#000" d="M109 227s6.98 6.47 10 5.973c0 0-8.542-.697-10-5.973zM108 229s.694 3.301 2.545 2.978C112.396 231.654 108 229 108 229zM118 285s-9.406 7.786-7.82 7.996c1.586.21 7.82-7.996 7.82-7.996z" opacity=".1"/>
        <path fill="#00D09C" d="M131 137.984L162 133v29l-29.454-1.524z"/>
        <g fill="#000">
            <path d="M131 137.984L162 133v29l-29.454-1.524z" opacity=".05"/>
            <path d="M162 133l36 2.749-1.992 25.237L162 162z" opacity=".1"/>
        </g>
        <path fill="#00D09C" d="M162 133l36 2.749-1.992 25.237L162 162z"/>
        <path fill="#00D09C" d="M173.363 125L162 134.156 198.96 137l6.04-9.37zM120 128.351L147.76 125l14.24 8.025L131.165 138zM169 140.534V180l-14.216-1.465-6.184-.634-1.884-.198-6.18-.637-8.536-.88V138l30.343 2.075z"/>
        <path fill="#00D09C" d="M199 136v38.292l-11.494 2.186-5.59 1.064L169 180v-39.265z"/>
        <path fill="#000" d="M199 136v38.292l-11.494 2.186-5.59 1.064L169 180v-39.265z" opacity=".05"/>
        <path fill="#00D09C" d="M120 146.482L131.22 138l37.78 2.588-5.562 9.412z"/>
        <g fill="#FFF" opacity=".1">
            <path d="M120 146.482L131.22 138l37.78 2.588-5.562 9.412zM199.072 137L169 141.593l9.788 8.407L211 144.818zM187 177.88l-6 1.12v-8.622l5.62-1.378z"/>
        </g>
        <path fill="#00D09C" d="M199.072 137L169 141.593l9.788 8.407L211 144.818z"/>
        <path fill="#FFF" d="M155 174v6l-7-.699V174zM147 176v3l-7-.66V176z" opacity=".1"/>
        <path fill="#000" d="M164.6 171.018c-4.316 5.506-18.57 1.702-18.57 1.702l-10.593-11.02-1.437-1.494 2.81-5.206s.804.264 2.145.729c7.099 2.475 29.28 10.656 25.646 15.289z" opacity=".1"/>
        <path fill="#EFB7B9" d="M164.6 170.018c-4.316 5.506-18.57 1.702-18.57 1.702l-10.593-11.02-1.437-1.494 2.81-5.206s.804.264 2.145.729c7.099 2.475 29.28 10.656 25.646 15.289z"/>
        <path fill="#000" d="M139 154.762c-.592 1.757-2.095 4.36-3.55 6.238l-1.45-1.56 2.836-5.44s.815.276 2.164.762z" opacity=".1"/>
        <path fill="#DCE6F2" d="M104.6 93.068S94.1 97.062 94 108.245a183.502 183.502 0 0 0 1.2 21.567s-3 16.675 5.499 21.467c8.499 4.793 16.397 8.787 16.397 8.787s13.578 2.196 15.246 2.895c1.668.7 7.463-8.287 6.563-9.785-.9-1.497-13.262-5.192-14.73-7.688-1.468-2.496-5.083-4.177-5.083-4.177s-3.687-2.513-3.835-4.61c-.148-2.096.94-3.594 1.247-4.493.308-.898 1.424-9.685 1.424-9.685s5.967-31.172-13.33-29.455z"/>
        <path fill="#000" d="M109 130s-14.027 1.697-12.94 7c0 0 5.33-5.35 12.94-7zM110 131s-8.344 6.538-6.812 6.98C104.72 138.425 110 131 110 131zM111.979 134s-1.61 4.212-.7 3.992c.91-.22.7-3.992.7-3.992z" opacity=".1"/>
        <path fill="#00D09C" d="M259.715 45.019s-14.244-.879-12.58 9.352c0 0-.333 1.808 1.267 2.629 0 0 .026-.768 1.462-.503.511.088 1.03.114 1.548.077.7-.048 1.367-.33 1.897-.802 0 0 4.007-1.692 5.566-8.4 0 0 1.154-1.467 1.124-1.843l-2.406 1.056s.82 1.776.172 3.254c0 0-.075-3.19-.54-3.116-.093 0-1.248.618-1.248.618s1.414 3.093.345 5.345c0 0 .405-3.814-.787-5.123l-1.694 1.013s1.653 3.197.532 5.807c0 0 .289-4.003-.888-5.561l-1.537 1.224s1.556 3.155.607 5.32c0 0-.123-4.66-.94-5.013 0 0-1.342 1.213-1.545 1.712 0 0 1.06 2.302.401 3.496 0 0-.405-3.105-.75-3.12 0 0-1.338 2.057-1.476 3.454a7.592 7.592 0 0 1 1.15-3.661 3.983 3.983 0 0 0-2.046 1.086s.206-1.455 2.376-1.581c0 0 1.125-1.562 1.402-1.658 0 0-2.159-.184-3.467.41 0 0 1.15-1.37 3.865-.767l1.499-1.267s-2.841-.383-4.048.043c0 0 1.387-1.213 4.456-.33l1.65-1.01s-2.422-.537-3.865-.341c0 0 1.522-.84 4.348.069l1.18-.541s-1.776-.357-2.293-.415c-.517-.057-.547-.203-.547-.203a6 6 0 0 1 3.332.384s2.53-.933 2.478-1.094z"/>
        <path fill="#00D09C" d="M305.747 98.019s-14.28-.879-12.611 9.352c0 0-.335 1.808 1.27 2.629 0 0 .026-.768 1.47-.503a6.445 6.445 0 0 0 1.551.077 3.182 3.182 0 0 0 1.879-.798s4.02-1.696 5.584-8.405c0 0 1.154-1.462 1.109-1.838l-2.413 1.052s.823 1.776.177 3.254c0 0-.08-3.19-.541-3.116-.094 0-1.255.618-1.255.618s1.42 3.097.349 5.345c0 0 .406-3.814-.793-5.123l-1.68 1.002s1.658 3.197.534 5.806c0 0 .29-4.002-.89-5.56l-1.538 1.228s1.556 3.15.61 5.315c0 0-.125-4.66-.944-5.012 0 0-1.345 1.212-1.552 1.711 0 0 1.067 2.303.406 3.496 0 0-.406-3.104-.752-3.12 0 0-1.341 2.057-1.48 3.454a7.601 7.601 0 0 1 1.157-3.66 4.015 4.015 0 0 0-2.055 1.085s.21-1.454 2.386-1.58c0 0 1.108-1.563 1.405-1.659 0 0-2.164-.184-3.476.41 0 0 1.154-1.37 3.87-.747l1.504-1.267s-2.852-.384-4.059.042c0 0 1.39-1.212 4.469-.33l1.653-1.009s-2.431-.533-3.878-.342c0 0 1.53-.84 4.363.07l1.183-.542s-1.78-.357-2.303-.414c-.522-.058-.549-.203-.549-.203a6.04 6.04 0 0 1 3.345.383s2.54-.94 2.495-1.101zM213.455 87.826s3.528-14.63-7.373-14.682c0 0-1.81-.662-2.95.852 0 0 .778.162.25 1.606a6.894 6.894 0 0 0-.363 1.578 3.33 3.33 0 0 0 .48 2.102s1.02 4.458 7.659 7.25c0 0 1.306 1.452 1.7 1.468l-.644-2.678s-1.992.54-3.402-.395c0 0 3.317.477 3.321 0 0-.099-.403-1.404-.403-1.404s-3.463.923-5.6-.58c0 0 3.875 1.089 5.451.083l-.726-1.941s-3.628 1.156-6.111-.466c0 0 4.092 1.002 5.922.056l-.988-1.807s-3.547 1.057-5.615-.304c0 0 4.837.687 5.361-.094 0 0-1.008-1.606-1.487-1.906 0 0-2.564.703-3.693-.193 0 0 3.286.122 3.362-.217 0 0-1.882-1.747-3.318-2.142a7.96 7.96 0 0 1 3.584 1.838 4.193 4.193 0 0 0-.75-2.315s1.468.473 1.21 2.761c0 0 1.41 1.42 1.455 1.744 0 0 .585-2.205.21-3.669 0 0 1.21 1.436.068 4.138l1.032 1.795s.935-2.88.698-4.205c0 0 1.003 1.649-.476 4.678l.746 1.89s.995-2.422 1.06-3.945c0 0 .593 1.728-.87 4.501l.346 1.318s.693-1.78.846-2.308c.154-.529.31-.533.31-.533a6.36 6.36 0 0 1-1.003 3.393s.528 2.753.701 2.733zM181 93.047s-12-9.618-16.29.8c0 0-1.31 1.454-.37 3.194 0 0 .448-.679 1.572.446.399.397.84.742 1.314 1.028a3.184 3.184 0 0 0 2.111.421s4.467.923 9.61-4.263c0 0 1.837-.632 2.01-1.003l-2.71-.51s-.283 2.137-1.679 3.093c0 0 1.727-2.974 1.278-3.19-.09-.046-1.443-.21-1.443-.21s-.503 3.716-2.705 5.119c0 0 2.505-3.248 2.194-5.186l-2.056-.118s-.35 3.956-2.804 5.658c0 0 2.505-3.493 2.36-5.65l-2.038.177s-.412 3.846-2.461 5.245c0 0 2.513-4.348 1.997-5.173 0 0-1.86.282-2.32.61 0 0-.357 2.756-1.616 3.455 0 0 1.396-3.096 1.113-3.311 0 0-2.332 1.057-3.248 2.262a7.803 7.803 0 0 1 3.075-2.645 3.974 3.974 0 0 0-2.406-.27s.998-1.205 2.972.02c0 0 1.849-.745 2.163-.652 0 0-1.79-1.504-3.271-1.765 0 0 1.785-.548 3.81 1.685l2.04-.223s-2.268-2.107-3.57-2.46c0 0 1.9-.258 4.09 2.447l2.013.097s-1.82-1.989-3.193-2.705c0 0 1.805.169 3.77 2.751l1.342.232s-1.357-1.424-1.782-1.795c-.424-.37-.365-.526-.365-.526a6.586 6.586 0 0 1 2.709 2.41s2.733.678 2.784.505zM221 9.05s-12-9.625-16.29.8c0 0-1.31 1.454-.37 3.195 0 0 .448-.679 1.572.446.4.395.843.739 1.318 1.024a3.18 3.18 0 0 0 2.111.422s4.467.922 9.61-4.27c0 0 1.837-.627 2.006-1.002l-2.71-.501s-.279 2.136-1.679 3.093c0 0 1.73-2.975 1.282-3.19-.09-.047-1.443-.211-1.443-.211s-.519 3.725-2.72 5.12c0 0 2.5-3.25 2.193-5.187l-2.056-.118s-.354 3.956-2.804 5.655c0 0 2.505-3.494 2.36-5.651l-2.033.177s-.417 3.851-2.466 5.25c0 0 2.517-4.348 2.002-5.174 0 0-1.86.282-2.32.61 0 0-.358 2.756-1.616 3.456 0 0 1.395-3.097 1.112-3.316 0 0-2.331 1.062-3.248 2.267a7.767 7.767 0 0 1 3.075-2.647 3.948 3.948 0 0 0-2.41-.27s1.003-1.204 2.977.022c0 0 1.848-.75 2.162-.653 0 0-1.789-1.505-3.271-1.77 0 0 1.78-.544 3.806 1.685l2.04-.223s-2.264-2.107-3.57-2.465c0 0 1.9-.253 4.094 2.452l2.013.093s-1.82-1.989-3.197-2.701c0 0 1.809.169 3.775 2.752l1.337.231s-1.36-1.407-1.785-1.77c-.425-.362-.366-.522-.366-.522a6.574 6.574 0 0 1 2.71 2.41s2.732.64 2.799.48zM268 20.476s-4.846-14.997-13.986-9.104c0 0-1.867.415-2.014 2.372 0 0 .735-.283 1.06 1.295.122.562.304 1.107.545 1.624a3.525 3.525 0 0 0 1.525 1.616s3.226 3.426 10.28 2.292c0 0 1.863.59 2.205.386l-1.986-2.039s-1.375 1.566-3.051 1.504c0 0 3.03-1.38 2.78-1.824-.051-.087-1.088-1.03-1.088-1.03s-2.407 2.712-4.989 2.534c0 0 3.817-1.138 4.596-2.907l-1.645-1.325s-2.407 2.998-5.358 2.907c0 0 3.972-1.333 4.977-3.177l-1.787-1.076s-2.384 2.878-4.854 2.787c0 0 4.417-2.023 4.429-3.003 0 0-1.697-.884-2.257-.893 0 0-1.771 2.023-3.177 1.84 0 0 2.812-1.682 2.693-2.026 0 0-2.503-.536-3.913-.104a7.422 7.422 0 0 1 3.972-.312 4.344 4.344 0 0 0-1.863-1.66s1.478-.379 2.467 1.797c0 0 1.939.503 2.145.764 0 0-.683-2.288-1.776-3.393 0 0 1.776.628 2.26 3.663l1.82 1.039s-.75-3.078-1.656-4.153c0 0 1.72.93 2.093 4.44l1.628 1.282s-.452-2.707-1.215-4.111c0 0 1.414 1.221 1.668 4.498l.99.988S265.151 16 265 15.442c-.15-.556-.028-.594-.028-.594a7.083 7.083 0 0 1 .965 3.58s1.923 2.156 2.062 2.048zM235.729 21.097s-14.886-1.693-13.657 9.095c0 0-.444 1.87 1.178 2.808 0 0 .067-.802 1.572-.441a7.08 7.08 0 0 0 1.618.164 3.334 3.334 0 0 0 2.022-.734s4.285-1.553 6.285-8.473c0 0 1.28-1.465 1.253-1.862l-2.573.971s.785 1.898 0 3.406c0 0 .082-3.334-.393-3.281-.098 0-1.34.577-1.34.577s1.32 3.31.087 5.617c0 0 .62-3.964-.561-5.392l-1.827.963s1.571 3.43.256 6.094c0 0 .51-4.164-.64-5.854l-1.67 1.204s1.461 3.374.358 5.585c0 0 .113-4.87-.723-5.284 0 0-1.47 1.204-1.709 1.701 0 0 .994 2.447.244 3.67 0 0-.263-3.26-.609-3.293 0 0-1.508 2.074-1.728 3.539a7.912 7.912 0 0 1 1.398-3.764c-.815.116-1.58.471-2.2 1.024 0 0 .291-1.505 2.57-1.521 0 0 1.237-1.569 1.57-1.653 0 0-2.25-.309-3.652.24 0 0 1.276-1.371 4.08-.573l1.654-1.24s-2.989-.617-4.254-.216c0 0 1.516-1.204 4.682-.1l1.78-.967s-2.51-.69-4.03-.566c0 0 1.637-.802 4.548.309l1.265-.502s-1.843-.47-2.385-.557c-.542-.089-.561-.241-.561-.241a6.34 6.34 0 0 1 3.472.578s2.647-.863 2.62-1.031zM367.74 138.097s-14.899-1.695-13.668 9.092c0 0-.444 1.871 1.18 2.811 0 0 .067-.803 1.573-.446a6.67 6.67 0 0 0 1.621.165 3.312 3.312 0 0 0 2.026-.735s4.29-1.554 6.273-8.478c0 0 1.282-1.47 1.255-1.863l-2.577.968s.787 1.903 0 3.413c0 0 .083-3.34-.393-3.285-.098 0-1.341.575-1.341.575s1.321 3.313.086 5.622c0 0 .622-3.964-.562-5.397l-1.829.967s1.573 3.434.26 6.1c0 0 .507-4.168-.645-5.863l-1.672 1.205s1.463 3.377.358 5.586c0 0 .114-4.875-.724-5.285 0 0-1.467 1.205-1.71 1.703 0 0 .998 2.45.243 3.675 0 0-.263-3.265-.61-3.297 0 0-1.51 2.076-1.73 3.542a7.918 7.918 0 0 1 1.4-3.767 4.158 4.158 0 0 0-2.202 1.024s.29-1.51 2.572-1.526c0 0 1.243-1.57 1.573-1.65 0 0-2.254-.314-3.658.236 0 0 1.279-1.37 4.09-.57l1.653-1.241s-2.958-.57-4.244-.177c0 0 1.518-1.205 4.688-.104l1.782-.964s-2.513-.69-4.036-.566c0 0 1.64-.803 4.555.309l1.266-.506s-1.844-.47-2.387-.554c-.543-.085-.562-.241-.562-.241a6.329 6.329 0 0 1 3.477.574s2.658-.88 2.619-1.052zM390.755 152.096s-14.915-1.69-13.683 9.093c0 0-.44 1.871 1.182 2.811 0 0 .067-.803 1.575-.442a6.819 6.819 0 0 0 1.618.16 3.36 3.36 0 0 0 2.02-.73s4.292-1.554 6.276-8.482c0 0 1.288-1.466 1.256-1.863l-2.579.967s.788 1.904 0 3.414c0 0 .083-3.337-.393-3.285-.099 0-1.343.574-1.343.574s1.323 3.313.087 5.623c0 0 .622-3.964-.564-5.394l-1.83.964s1.575 3.434.26 6.1c0 0 .507-4.168-.646-5.859l-1.674 1.205s1.465 3.377.362 5.59c0 0 .11-4.88-.728-5.289 0 0-1.469 1.205-1.713 1.703 0 0 1 2.45.244 3.675 0 0-.264-3.266-.61-3.298 0 0-1.512 2.077-1.729 3.542a7.934 7.934 0 0 1 1.398-3.767 4.2 4.2 0 0 0-2.205 1.025s.296-1.51 2.58-1.523c0 0 1.24-1.57 1.574-1.654 0 0-2.256-.31-3.662.24 0 0 1.28-1.373 4.095-.574l1.654-1.24s-2.96-.57-4.248-.177c0 0 1.52-1.205 4.693-.1l1.784-.968s-2.516-.691-4.04-.567c0 0 1.642-.803 4.56.31l1.267-.503s-1.846-.47-2.386-.558c-.54-.088-.567-.24-.567-.24 1.19-.14 2.396.06 3.481.578 0 0 2.674-.888 2.634-1.06zM340 34.047s-12-9.618-16.29.8c0 0-1.31 1.454-.37 3.194 0 0 .448-.679 1.572.446.399.397.84.742 1.314 1.028.642.383 1.383.53 2.111.421 0 0 4.467.923 9.614-4.263 0 0 1.833-.632 2.006-1.003l-2.702-.522s-.283 2.136-1.679 3.092c0 0 1.727-2.974 1.278-3.189-.09-.046-1.439-.21-1.439-.21s-.507 3.715-2.71 5.118c0 0 2.506-3.248 2.195-5.186l-2.057-.118s-.35 3.956-2.803 5.658c0 0 2.509-3.492 2.36-5.65l-2.038.178s-.393 3.846-2.461 5.244c0 0 2.516-4.347 1.997-5.173 0 0-1.86.282-2.32.611 0 0-.354 2.755-1.612 3.455 0 0 1.392-3.097 1.109-3.312 0 0-2.332 1.058-3.248 2.263a7.803 7.803 0 0 1 3.075-2.646 3.974 3.974 0 0 0-2.406-.27s1.002-1.205 2.976.021c0 0 1.844-.745 2.159-.653 0 0-1.79-1.504-3.272-1.765 0 0 1.786-.548 3.81 1.685l2.041-.223s-2.264-2.106-3.57-2.46c0 0 1.9-.257 4.09 2.447l2.017.097s-1.825-1.988-3.197-2.704c0 0 1.809.168 3.77 2.75l1.342.232s-1.357-1.424-1.782-1.794c-.424-.371-.361-.493-.361-.493a6.59 6.59 0 0 1 2.705 2.41s2.725.657 2.776.484zM349 99.503s-3.994-14.612-12.976-9.366c0 0-1.8.29-2.024 2.182 0 0 .714-.236.96 1.292.092.55.245 1.085.456 1.596.282.687.77 1.259 1.39 1.627 0 0 2.938 3.431 9.719 2.665 0 0 1.754.646 2.088.47l-1.796-2.05s-1.378 1.444-2.973 1.309c0 0 2.946-1.197 2.719-1.624-.046-.088-.995-1.04-.995-1.04s-2.407 2.496-4.867 2.205c0 0 3.694-.917 4.506-2.569l-1.518-1.348s-2.422 2.768-5.236 2.553c0 0 3.827-1.105 4.883-2.824l-1.663-1.113s-2.411 2.652-4.75 2.453c0 0 4.302-1.743 4.355-2.68 0 0-1.587-.926-2.122-.958 0 0-1.773 1.859-3.121 1.62 0 0 2.756-1.489 2.657-1.824 0 0-2.369-.626-3.731-.279a7.063 7.063 0 0 1 3.796-.116 4.162 4.162 0 0 0-1.708-1.675s1.427-.3 2.278 1.835c0 0 1.826.566 2.015.83 0 0-.558-2.23-1.556-3.335 0 0 1.67.678 2.008 3.614l1.693 1.081s-.592-2.992-1.412-4.045c0 0 1.602.97 1.819 4.352l1.518 1.305s-.322-2.617-.99-3.99c0 0 1.302 1.237 1.408 4.389l.903.997s-.265-1.907-.38-2.45c-.113-.542 0-.618 0-.618a6.808 6.808 0 0 1 .78 3.479s1.73 2.146 1.867 2.05zM256 132.906s-8.064-13.346-15.552-5.358c0 0-1.713.83-1.413 2.799 0 0 .652-.456 1.323.995.24.515.54.996.892 1.435a3.352 3.352 0 0 0 1.835 1.195s3.888 2.521 10.44-.332c0 0 1.93.108 2.214-.17l-2.368-1.493s-.975 1.866-2.605 2.218c0 0 2.613-2.073 2.262-2.455-.067-.074-1.283-.73-1.283-.73s-1.71 3.227-4.243 3.696c0 0 3.43-2.053 3.785-3.953l-1.89-.875s-1.646 3.505-4.512 4.147c0 0 3.513-2.276 4.085-4.317l-1.973-.597s-1.666 3.388-4.054 3.907c0 0 3.805-3.06 3.596-4.015 0 0-1.84-.435-2.369-.302 0 0-1.25 2.4-2.664 2.575 0 0 2.337-2.33 2.143-2.638 0 0-2.538.104-3.8.871a7.43 7.43 0 0 1 3.765-1.285 4.164 4.164 0 0 0-2.167-1.15s1.338-.733 2.763 1.133c0 0 1.973 0 2.246.207 0 0-1.184-2.073-2.483-2.849 0 0 1.855.166 3.008 2.99l1.993.556s-1.425-2.8-2.534-3.6c0 0 1.867.473 3.024 3.787l1.863.83s-1.05-2.51-2.104-3.683c0 0 1.642.829 2.625 3.943l1.184.718s-.79-1.82-1.07-2.322-.17-.618-.17-.618a6.895 6.895 0 0 1 1.741 3.23s2.36 1.65 2.467 1.51z" opacity=".1"/>
        <path fill="#00D09C" d="M310 66.195s-7.71-13.522-15.476-5.827c0 0-1.746.784-1.5 2.739 0 0 .662-.438 1.297 1.026.227.52.514 1.011.854 1.46a3.363 3.363 0 0 0 1.81 1.238s3.828 2.63 10.5 0c0 0 1.936.169 2.23-.1l-2.33-1.558s-1.032 1.818-2.683 2.12c0 0 2.687-1.992 2.35-2.368-.072-.078-1.27-.77-1.27-.77s-1.814 3.154-4.365 3.538c0 0 3.508-1.93 3.916-3.803l-1.873-.915s-1.758 3.435-4.658 3.983c0 0 3.599-2.148 4.234-4.157l-1.96-.66s-1.778 3.3-4.191 3.753c0 0 3.913-2.92 3.73-3.872 0 0-1.833-.495-2.38-.38 0 0-1.33 2.347-2.755 2.475 0 0 2.417-2.235 2.234-2.549 0 0-2.555.02-3.845.743a7.532 7.532 0 0 1 3.821-1.155 4.221 4.221 0 0 0-2.146-1.213s1.369-.688 2.777 1.213c0 0 1.985.07 2.25.28 0 0-1.123-2.062-2.408-2.911 0 0 1.857.222 2.932 3.068l1.984.619s-1.345-2.83-2.44-3.663c0 0 1.865.532 2.928 3.86l1.846.896s-.98-2.529-1.984-3.712c0 0 1.623.878 2.523 4.004l1.163.75s-.746-1.834-1.008-2.342c-.262-.507-.15-.618-.15-.618a6.867 6.867 0 0 1 1.654 3.266s2.274 1.679 2.389 1.542zM259.998 94.7s.373-14.553-9.487-12.502c0 0-1.766-.279-2.511 1.379 0 0 .745 0 .536 1.47a6.876 6.876 0 0 0-.022 1.582c.067.714.362 1.385.838 1.91 0 0 1.777 4.026 8.337 5.393 0 0 1.456 1.127 1.821 1.066l-1.117-2.414s-1.695.893-3.152.286c0 0 3.092-.187 3.006-.653 0-.096-.64-1.257-.64-1.257s-2.958 1.547-5.174.531c0 0 3.725.287 4.943-.97l-1.04-1.692s-3.047 1.788-5.617.733c0 0 3.893.16 5.368-1.088l-1.24-1.528s-3.007 1.688-5.137.794c0 0 4.514-.278 4.842-1.123 0 0-1.222-1.325-1.713-1.527 0 0-2.183 1.145-3.375.527 0 0 2.98-.512 2.999-.852 0 0-2.038-1.295-3.413-1.39a7.12 7.12 0 0 1 3.595 1.054 4.135 4.135 0 0 0-1.117-2.051s1.419.164 1.612 2.368c0 0 1.554 1.077 1.654 1.375 0 0 .108-2.204-.514-3.518 0 0 1.371 1.127.857 3.907l1.278 1.505s.29-2.91-.175-4.121c0 0 1.221 1.371.469 4.526l1.032 1.646s.44-2.486.205-3.949c0 0 .864 1.528.074 4.435l.566 1.184s.287-1.822.324-2.353c.038-.531.18-.566.18-.566a6.422 6.422 0 0 1-.258 3.411s1.002 2.521 1.166 2.472z"/>
        <ellipse cx="278.5" cy="285" fill="#44475B" opacity=".1" rx="10.5" ry="2"/>
        <ellipse cx="238.5" cy="313" fill="#44475B" opacity=".1" rx="10.5" ry="2"/>
        <ellipse cx="36.5" cy="299" fill="#6C63FF" opacity=".1" rx="10.5" ry="2"/>
        <ellipse cx="320.5" cy="311" fill="#44475B" opacity=".1" rx="10.5" ry="2"/>
        <ellipse cx="331" cy="288" fill="#00D09C" rx="16" ry="3"/>
        <path fill="#00D09C" d="M337.461 283.486a4.71 4.71 0 0 0 1.49-2.336c.194-.93-.187-2.042-1.039-2.381-.956-.38-1.979.307-2.756 1.002-.778.695-1.66 1.492-2.675 1.346 1.06-1 1.537-2.505 1.26-3.965a1.693 1.693 0 0 0-.35-.808c-.533-.59-1.493-.336-2.131.129-2.022 1.48-2.586 4.333-2.597 6.904-.202-.926-.031-1.892-.035-2.83-.004-.937-.257-2.02-1.03-2.514a2.983 2.983 0 0 0-1.556-.404c-.91-.032-1.924.06-2.542.752-.778.857-.572 2.3.097 3.233.669.934 1.691 1.536 2.632 2.191a5.988 5.988 0 0 1 1.882 1.864c.055.105.1.216.136.331h5.7a15.718 15.718 0 0 0 3.514-2.514z"/>
        <path fill="#A8A8A8" d="M29 290.431s6.176-.194 8.047-1.559c1.87-1.364 9.506-2.989 9.97-.802.462 2.187 9.285 10.87 2.308 10.928-6.976.058-16.21-1.116-18.068-2.282C29.398 295.55 29 290.43 29 290.43z"/>
        <path fill="#000" d="M49.45 298.207c-6.978.061-16.216-1.172-18.075-2.397-1.417-.929-1.98-4.268-2.17-5.81H29s.402 5.38 2.25 6.6c1.847 1.221 11.097 2.459 18.076 2.398 2.013 0 2.709-.79 2.673-1.937-.282.7-1.05 1.133-2.548 1.146z" opacity=".2"/>
    </g>
</svg>
